<svg xmlns="http://www.w3.org/2000/svg" viewBox="0 0 256 256"><path fill="#a0deab" d="M63,0 l21 42 l-42 0z M189,0 l21 42 l-42 0z"></path><path fill="#396c21" d="M63,42 l21 42 l-42 0z M189,42 l21 42 l-42 0z"></path><path fill="#86d681" d="M21,84 l21 42 l-42 0z M105,84 l21 42 l-42 0z M147,84 l21 42 l-42 0z M231,84 l21 42 l-42 0z"></path><path fill="#84671f" d="M63,126 l21 42 l-42 0z M189,126 l21 42 l-42 0z"></path><path fill="#3a28d4" d="M21,168 l21 42 l-42 0z M105,168 l21 42 l-42 0z M147,168 l21 42 l-42 0z M231,168 l21 42 l-42 0z"></path><path fill="#5c2c91" d="M21,210 l21 42 l-42 0z M105,210 l21 42 l-42 0z M147,210 l21 42 l-42 0z M231,210 l21 42 l-42 0z"></path></svg>