<svg xmlns="http://www.w3.org/2000/svg" width="100%" height="100%" viewBox="0 0 256 256"><path fill="#bb4f5d" d="M0,4 a4 4 0 1,1 8,0 a4 4 0 1,1 -8,0 M8,4 a4 4 0 1,1 8,0 a4 4 0 1,1 -8,0 M24,4 a4 4 0 1,1 8,0 a4 4 0 1,1 -8,0 M40,4 a4 4 0 1,1 8,0 a4 4 0 1,1 -8,0 M64,4 a4 4 0 1,1 8,0 a4 4 0 1,1 -8,0 M96,4 a4 4 0 1,1 8,0 a4 4 0 1,1 -8,0 M104,4 a4 4 0 1,1 8,0 a4 4 0 1,1 -8,0 M112,4 a4 4 0 1,1 8,0 a4 4 0 1,1 -8,0 M152,4 a4 4 0 1,1 8,0 a4 4 0 1,1 -8,0 M160,4 a4 4 0 1,1 8,0 a4 4 0 1,1 -8,0 M168,4 a4 4 0 1,1 8,0 a4 4 0 1,1 -8,0 M184,4 a4 4 0 1,1 8,0 a4 4 0 1,1 -8,0 M208,4 a4 4 0 1,1 8,0 a4 4 0 1,1 -8,0 M224,4 a4 4 0 1,1 8,0 a4 4 0 1,1 -8,0 M240,4 a4 4 0 1,1 8,0 a4 4 0 1,1 -8,0 M248,4 a4 4 0 1,1 8,0 a4 4 0 1,1 -8,0"></path><path fill="#5b67ed" d="M0,12 a4 4 0 1,1 8,0 a4 4 0 1,1 -8,0 M8,12 a4 4 0 1,1 8,0 a4 4 0 1,1 -8,0 M24,12 a4 4 0 1,1 8,0 a4 4 0 1,1 -8,0 M40,12 a4 4 0 1,1 8,0 a4 4 0 1,1 -8,0 M64,12 a4 4 0 1,1 8,0 a4 4 0 1,1 -8,0 M96,12 a4 4 0 1,1 8,0 a4 4 0 1,1 -8,0 M104,12 a4 4 0 1,1 8,0 a4 4 0 1,1 -8,0 M112,12 a4 4 0 1,1 8,0 a4 4 0 1,1 -8,0 M152,12 a4 4 0 1,1 8,0 a4 4 0 1,1 -8,0 M160,12 a4 4 0 1,1 8,0 a4 4 0 1,1 -8,0 M168,12 a4 4 0 1,1 8,0 a4 4 0 1,1 -8,0 M184,12 a4 4 0 1,1 8,0 a4 4 0 1,1 -8,0 M208,12 a4 4 0 1,1 8,0 a4 4 0 1,1 -8,0 M224,12 a4 4 0 1,1 8,0 a4 4 0 1,1 -8,0 M240,12 a4 4 0 1,1 8,0 a4 4 0 1,1 -8,0 M248,12 a4 4 0 1,1 8,0 a4 4 0 1,1 -8,0"></path><path fill="#abd8e5" d="M16,20 a4 4 0 1,1 8,0 a4 4 0 1,1 -8,0 M32,20 a4 4 0 1,1 8,0 a4 4 0 1,1 -8,0 M48,20 a4 4 0 1,1 8,0 a4 4 0 1,1 -8,0 M56,20 a4 4 0 1,1 8,0 a4 4 0 1,1 -8,0 M72,20 a4 4 0 1,1 8,0 a4 4 0 1,1 -8,0 M80,20 a4 4 0 1,1 8,0 a4 4 0 1,1 -8,0 M88,20 a4 4 0 1,1 8,0 a4 4 0 1,1 -8,0 M120,20 a4 4 0 1,1 8,0 a4 4 0 1,1 -8,0 M128,20 a4 4 0 1,1 8,0 a4 4 0 1,1 -8,0 M136,20 a4 4 0 1,1 8,0 a4 4 0 1,1 -8,0 M144,20 a4 4 0 1,1 8,0 a4 4 0 1,1 -8,0 M176,20 a4 4 0 1,1 8,0 a4 4 0 1,1 -8,0 M192,20 a4 4 0 1,1 8,0 a4 4 0 1,1 -8,0 M200,20 a4 4 0 1,1 8,0 a4 4 0 1,1 -8,0 M216,20 a4 4 0 1,1 8,0 a4 4 0 1,1 -8,0 M232,20 a4 4 0 1,1 8,0 a4 4 0 1,1 -8,0"></path><path fill="#10e56b" d="M16,28 a4 4 0 1,1 8,0 a4 4 0 1,1 -8,0 M32,28 a4 4 0 1,1 8,0 a4 4 0 1,1 -8,0 M48,28 a4 4 0 1,1 8,0 a4 4 0 1,1 -8,0 M56,28 a4 4 0 1,1 8,0 a4 4 0 1,1 -8,0 M72,28 a4 4 0 1,1 8,0 a4 4 0 1,1 -8,0 M80,28 a4 4 0 1,1 8,0 a4 4 0 1,1 -8,0 M88,28 a4 4 0 1,1 8,0 a4 4 0 1,1 -8,0 M120,28 a4 4 0 1,1 8,0 a4 4 0 1,1 -8,0 M128,28 a4 4 0 1,1 8,0 a4 4 0 1,1 -8,0 M136,28 a4 4 0 1,1 8,0 a4 4 0 1,1 -8,0 M144,28 a4 4 0 1,1 8,0 a4 4 0 1,1 -8,0 M176,28 a4 4 0 1,1 8,0 a4 4 0 1,1 -8,0 M192,28 a4 4 0 1,1 8,0 a4 4 0 1,1 -8,0 M200,28 a4 4 0 1,1 8,0 a4 4 0 1,1 -8,0 M216,28 a4 4 0 1,1 8,0 a4 4 0 1,1 -8,0 M232,28 a4 4 0 1,1 8,0 a4 4 0 1,1 -8,0"></path><path fill="#228573" d="M16,36 a4 4 0 1,1 8,0 a4 4 0 1,1 -8,0 M32,36 a4 4 0 1,1 8,0 a4 4 0 1,1 -8,0 M48,36 a4 4 0 1,1 8,0 a4 4 0 1,1 -8,0 M56,36 a4 4 0 1,1 8,0 a4 4 0 1,1 -8,0 M72,36 a4 4 0 1,1 8,0 a4 4 0 1,1 -8,0 M80,36 a4 4 0 1,1 8,0 a4 4 0 1,1 -8,0 M88,36 a4 4 0 1,1 8,0 a4 4 0 1,1 -8,0 M120,36 a4 4 0 1,1 8,0 a4 4 0 1,1 -8,0 M128,36 a4 4 0 1,1 8,0 a4 4 0 1,1 -8,0 M136,36 a4 4 0 1,1 8,0 a4 4 0 1,1 -8,0 M144,36 a4 4 0 1,1 8,0 a4 4 0 1,1 -8,0 M176,36 a4 4 0 1,1 8,0 a4 4 0 1,1 -8,0 M192,36 a4 4 0 1,1 8,0 a4 4 0 1,1 -8,0 M200,36 a4 4 0 1,1 8,0 a4 4 0 1,1 -8,0 M216,36 a4 4 0 1,1 8,0 a4 4 0 1,1 -8,0 M232,36 a4 4 0 1,1 8,0 a4 4 0 1,1 -8,0"></path><path fill="#c3f765" d="M0,44 a4 4 0 1,1 8,0 a4 4 0 1,1 -8,0 M8,44 a4 4 0 1,1 8,0 a4 4 0 1,1 -8,0 M24,44 a4 4 0 1,1 8,0 a4 4 0 1,1 -8,0 M40,44 a4 4 0 1,1 8,0 a4 4 0 1,1 -8,0 M64,44 a4 4 0 1,1 8,0 a4 4 0 1,1 -8,0 M96,44 a4 4 0 1,1 8,0 a4 4 0 1,1 -8,0 M104,44 a4 4 0 1,1 8,0 a4 4 0 1,1 -8,0 M112,44 a4 4 0 1,1 8,0 a4 4 0 1,1 -8,0 M152,44 a4 4 0 1,1 8,0 a4 4 0 1,1 -8,0 M160,44 a4 4 0 1,1 8,0 a4 4 0 1,1 -8,0 M168,44 a4 4 0 1,1 8,0 a4 4 0 1,1 -8,0 M184,44 a4 4 0 1,1 8,0 a4 4 0 1,1 -8,0 M208,44 a4 4 0 1,1 8,0 a4 4 0 1,1 -8,0 M224,44 a4 4 0 1,1 8,0 a4 4 0 1,1 -8,0 M240,44 a4 4 0 1,1 8,0 a4 4 0 1,1 -8,0 M248,44 a4 4 0 1,1 8,0 a4 4 0 1,1 -8,0"></path><path fill="#50ef5a" d="M16,52 a4 4 0 1,1 8,0 a4 4 0 1,1 -8,0 M32,52 a4 4 0 1,1 8,0 a4 4 0 1,1 -8,0 M48,52 a4 4 0 1,1 8,0 a4 4 0 1,1 -8,0 M56,52 a4 4 0 1,1 8,0 a4 4 0 1,1 -8,0 M72,52 a4 4 0 1,1 8,0 a4 4 0 1,1 -8,0 M80,52 a4 4 0 1,1 8,0 a4 4 0 1,1 -8,0 M88,52 a4 4 0 1,1 8,0 a4 4 0 1,1 -8,0 M120,52 a4 4 0 1,1 8,0 a4 4 0 1,1 -8,0 M128,52 a4 4 0 1,1 8,0 a4 4 0 1,1 -8,0 M136,52 a4 4 0 1,1 8,0 a4 4 0 1,1 -8,0 M144,52 a4 4 0 1,1 8,0 a4 4 0 1,1 -8,0 M176,52 a4 4 0 1,1 8,0 a4 4 0 1,1 -8,0 M192,52 a4 4 0 1,1 8,0 a4 4 0 1,1 -8,0 M200,52 a4 4 0 1,1 8,0 a4 4 0 1,1 -8,0 M216,52 a4 4 0 1,1 8,0 a4 4 0 1,1 -8,0 M232,52 a4 4 0 1,1 8,0 a4 4 0 1,1 -8,0"></path><path fill="#9073d0" d="M0,60 a4 4 0 1,1 8,0 a4 4 0 1,1 -8,0 M8,60 a4 4 0 1,1 8,0 a4 4 0 1,1 -8,0 M24,60 a4 4 0 1,1 8,0 a4 4 0 1,1 -8,0 M40,60 a4 4 0 1,1 8,0 a4 4 0 1,1 -8,0 M64,60 a4 4 0 1,1 8,0 a4 4 0 1,1 -8,0 M96,60 a4 4 0 1,1 8,0 a4 4 0 1,1 -8,0 M104,60 a4 4 0 1,1 8,0 a4 4 0 1,1 -8,0 M112,60 a4 4 0 1,1 8,0 a4 4 0 1,1 -8,0 M152,60 a4 4 0 1,1 8,0 a4 4 0 1,1 -8,0 M160,60 a4 4 0 1,1 8,0 a4 4 0 1,1 -8,0 M168,60 a4 4 0 1,1 8,0 a4 4 0 1,1 -8,0 M184,60 a4 4 0 1,1 8,0 a4 4 0 1,1 -8,0 M208,60 a4 4 0 1,1 8,0 a4 4 0 1,1 -8,0 M224,60 a4 4 0 1,1 8,0 a4 4 0 1,1 -8,0 M240,60 a4 4 0 1,1 8,0 a4 4 0 1,1 -8,0 M248,60 a4 4 0 1,1 8,0 a4 4 0 1,1 -8,0"></path><path fill="#a3d0f6" d="M0,68 a4 4 0 1,1 8,0 a4 4 0 1,1 -8,0 M8,68 a4 4 0 1,1 8,0 a4 4 0 1,1 -8,0 M24,68 a4 4 0 1,1 8,0 a4 4 0 1,1 -8,0 M40,68 a4 4 0 1,1 8,0 a4 4 0 1,1 -8,0 M64,68 a4 4 0 1,1 8,0 a4 4 0 1,1 -8,0 M96,68 a4 4 0 1,1 8,0 a4 4 0 1,1 -8,0 M104,68 a4 4 0 1,1 8,0 a4 4 0 1,1 -8,0 M112,68 a4 4 0 1,1 8,0 a4 4 0 1,1 -8,0 M152,68 a4 4 0 1,1 8,0 a4 4 0 1,1 -8,0 M160,68 a4 4 0 1,1 8,0 a4 4 0 1,1 -8,0 M168,68 a4 4 0 1,1 8,0 a4 4 0 1,1 -8,0 M184,68 a4 4 0 1,1 8,0 a4 4 0 1,1 -8,0 M208,68 a4 4 0 1,1 8,0 a4 4 0 1,1 -8,0 M224,68 a4 4 0 1,1 8,0 a4 4 0 1,1 -8,0 M240,68 a4 4 0 1,1 8,0 a4 4 0 1,1 -8,0 M248,68 a4 4 0 1,1 8,0 a4 4 0 1,1 -8,0"></path><path fill="#fe6cde" d="M0,76 a4 4 0 1,1 8,0 a4 4 0 1,1 -8,0 M8,76 a4 4 0 1,1 8,0 a4 4 0 1,1 -8,0 M24,76 a4 4 0 1,1 8,0 a4 4 0 1,1 -8,0 M40,76 a4 4 0 1,1 8,0 a4 4 0 1,1 -8,0 M64,76 a4 4 0 1,1 8,0 a4 4 0 1,1 -8,0 M96,76 a4 4 0 1,1 8,0 a4 4 0 1,1 -8,0 M104,76 a4 4 0 1,1 8,0 a4 4 0 1,1 -8,0 M112,76 a4 4 0 1,1 8,0 a4 4 0 1,1 -8,0 M152,76 a4 4 0 1,1 8,0 a4 4 0 1,1 -8,0 M160,76 a4 4 0 1,1 8,0 a4 4 0 1,1 -8,0 M168,76 a4 4 0 1,1 8,0 a4 4 0 1,1 -8,0 M184,76 a4 4 0 1,1 8,0 a4 4 0 1,1 -8,0 M208,76 a4 4 0 1,1 8,0 a4 4 0 1,1 -8,0 M224,76 a4 4 0 1,1 8,0 a4 4 0 1,1 -8,0 M240,76 a4 4 0 1,1 8,0 a4 4 0 1,1 -8,0 M248,76 a4 4 0 1,1 8,0 a4 4 0 1,1 -8,0"></path><path fill="#d6954e" d="M16,84 a4 4 0 1,1 8,0 a4 4 0 1,1 -8,0 M32,84 a4 4 0 1,1 8,0 a4 4 0 1,1 -8,0 M48,84 a4 4 0 1,1 8,0 a4 4 0 1,1 -8,0 M56,84 a4 4 0 1,1 8,0 a4 4 0 1,1 -8,0 M72,84 a4 4 0 1,1 8,0 a4 4 0 1,1 -8,0 M80,84 a4 4 0 1,1 8,0 a4 4 0 1,1 -8,0 M88,84 a4 4 0 1,1 8,0 a4 4 0 1,1 -8,0 M120,84 a4 4 0 1,1 8,0 a4 4 0 1,1 -8,0 M128,84 a4 4 0 1,1 8,0 a4 4 0 1,1 -8,0 M136,84 a4 4 0 1,1 8,0 a4 4 0 1,1 -8,0 M144,84 a4 4 0 1,1 8,0 a4 4 0 1,1 -8,0 M176,84 a4 4 0 1,1 8,0 a4 4 0 1,1 -8,0 M192,84 a4 4 0 1,1 8,0 a4 4 0 1,1 -8,0 M200,84 a4 4 0 1,1 8,0 a4 4 0 1,1 -8,0 M216,84 a4 4 0 1,1 8,0 a4 4 0 1,1 -8,0 M232,84 a4 4 0 1,1 8,0 a4 4 0 1,1 -8,0"></path><path fill="#7ddaf4" d="M0,92 a4 4 0 1,1 8,0 a4 4 0 1,1 -8,0 M8,92 a4 4 0 1,1 8,0 a4 4 0 1,1 -8,0 M24,92 a4 4 0 1,1 8,0 a4 4 0 1,1 -8,0 M40,92 a4 4 0 1,1 8,0 a4 4 0 1,1 -8,0 M64,92 a4 4 0 1,1 8,0 a4 4 0 1,1 -8,0 M96,92 a4 4 0 1,1 8,0 a4 4 0 1,1 -8,0 M104,92 a4 4 0 1,1 8,0 a4 4 0 1,1 -8,0 M112,92 a4 4 0 1,1 8,0 a4 4 0 1,1 -8,0 M152,92 a4 4 0 1,1 8,0 a4 4 0 1,1 -8,0 M160,92 a4 4 0 1,1 8,0 a4 4 0 1,1 -8,0 M168,92 a4 4 0 1,1 8,0 a4 4 0 1,1 -8,0 M184,92 a4 4 0 1,1 8,0 a4 4 0 1,1 -8,0 M208,92 a4 4 0 1,1 8,0 a4 4 0 1,1 -8,0 M224,92 a4 4 0 1,1 8,0 a4 4 0 1,1 -8,0 M240,92 a4 4 0 1,1 8,0 a4 4 0 1,1 -8,0 M248,92 a4 4 0 1,1 8,0 a4 4 0 1,1 -8,0"></path><path fill="#130809" d="M16,100 a4 4 0 1,1 8,0 a4 4 0 1,1 -8,0 M32,100 a4 4 0 1,1 8,0 a4 4 0 1,1 -8,0 M48,100 a4 4 0 1,1 8,0 a4 4 0 1,1 -8,0 M56,100 a4 4 0 1,1 8,0 a4 4 0 1,1 -8,0 M72,100 a4 4 0 1,1 8,0 a4 4 0 1,1 -8,0 M80,100 a4 4 0 1,1 8,0 a4 4 0 1,1 -8,0 M88,100 a4 4 0 1,1 8,0 a4 4 0 1,1 -8,0 M120,100 a4 4 0 1,1 8,0 a4 4 0 1,1 -8,0 M128,100 a4 4 0 1,1 8,0 a4 4 0 1,1 -8,0 M136,100 a4 4 0 1,1 8,0 a4 4 0 1,1 -8,0 M144,100 a4 4 0 1,1 8,0 a4 4 0 1,1 -8,0 M176,100 a4 4 0 1,1 8,0 a4 4 0 1,1 -8,0 M192,100 a4 4 0 1,1 8,0 a4 4 0 1,1 -8,0 M200,100 a4 4 0 1,1 8,0 a4 4 0 1,1 -8,0 M216,100 a4 4 0 1,1 8,0 a4 4 0 1,1 -8,0 M232,100 a4 4 0 1,1 8,0 a4 4 0 1,1 -8,0"></path><path fill="#c2d8b0" d="M0,108 a4 4 0 1,1 8,0 a4 4 0 1,1 -8,0 M8,108 a4 4 0 1,1 8,0 a4 4 0 1,1 -8,0 M24,108 a4 4 0 1,1 8,0 a4 4 0 1,1 -8,0 M40,108 a4 4 0 1,1 8,0 a4 4 0 1,1 -8,0 M64,108 a4 4 0 1,1 8,0 a4 4 0 1,1 -8,0 M96,108 a4 4 0 1,1 8,0 a4 4 0 1,1 -8,0 M104,108 a4 4 0 1,1 8,0 a4 4 0 1,1 -8,0 M112,108 a4 4 0 1,1 8,0 a4 4 0 1,1 -8,0 M152,108 a4 4 0 1,1 8,0 a4 4 0 1,1 -8,0 M160,108 a4 4 0 1,1 8,0 a4 4 0 1,1 -8,0 M168,108 a4 4 0 1,1 8,0 a4 4 0 1,1 -8,0 M184,108 a4 4 0 1,1 8,0 a4 4 0 1,1 -8,0 M208,108 a4 4 0 1,1 8,0 a4 4 0 1,1 -8,0 M224,108 a4 4 0 1,1 8,0 a4 4 0 1,1 -8,0 M240,108 a4 4 0 1,1 8,0 a4 4 0 1,1 -8,0 M248,108 a4 4 0 1,1 8,0 a4 4 0 1,1 -8,0"></path><path fill="#f96ee5" d="M16,116 a4 4 0 1,1 8,0 a4 4 0 1,1 -8,0 M32,116 a4 4 0 1,1 8,0 a4 4 0 1,1 -8,0 M48,116 a4 4 0 1,1 8,0 a4 4 0 1,1 -8,0 M56,116 a4 4 0 1,1 8,0 a4 4 0 1,1 -8,0 M72,116 a4 4 0 1,1 8,0 a4 4 0 1,1 -8,0 M80,116 a4 4 0 1,1 8,0 a4 4 0 1,1 -8,0 M88,116 a4 4 0 1,1 8,0 a4 4 0 1,1 -8,0 M120,116 a4 4 0 1,1 8,0 a4 4 0 1,1 -8,0 M128,116 a4 4 0 1,1 8,0 a4 4 0 1,1 -8,0 M136,116 a4 4 0 1,1 8,0 a4 4 0 1,1 -8,0 M144,116 a4 4 0 1,1 8,0 a4 4 0 1,1 -8,0 M176,116 a4 4 0 1,1 8,0 a4 4 0 1,1 -8,0 M192,116 a4 4 0 1,1 8,0 a4 4 0 1,1 -8,0 M200,116 a4 4 0 1,1 8,0 a4 4 0 1,1 -8,0 M216,116 a4 4 0 1,1 8,0 a4 4 0 1,1 -8,0 M232,116 a4 4 0 1,1 8,0 a4 4 0 1,1 -8,0"></path><path fill="#0d41e0" d="M16,124 a4 4 0 1,1 8,0 a4 4 0 1,1 -8,0 M32,124 a4 4 0 1,1 8,0 a4 4 0 1,1 -8,0 M48,124 a4 4 0 1,1 8,0 a4 4 0 1,1 -8,0 M56,124 a4 4 0 1,1 8,0 a4 4 0 1,1 -8,0 M72,124 a4 4 0 1,1 8,0 a4 4 0 1,1 -8,0 M80,124 a4 4 0 1,1 8,0 a4 4 0 1,1 -8,0 M88,124 a4 4 0 1,1 8,0 a4 4 0 1,1 -8,0 M120,124 a4 4 0 1,1 8,0 a4 4 0 1,1 -8,0 M128,124 a4 4 0 1,1 8,0 a4 4 0 1,1 -8,0 M136,124 a4 4 0 1,1 8,0 a4 4 0 1,1 -8,0 M144,124 a4 4 0 1,1 8,0 a4 4 0 1,1 -8,0 M176,124 a4 4 0 1,1 8,0 a4 4 0 1,1 -8,0 M192,124 a4 4 0 1,1 8,0 a4 4 0 1,1 -8,0 M200,124 a4 4 0 1,1 8,0 a4 4 0 1,1 -8,0 M216,124 a4 4 0 1,1 8,0 a4 4 0 1,1 -8,0 M232,124 a4 4 0 1,1 8,0 a4 4 0 1,1 -8,0"></path><path fill="#f90595" d="M0,132 a4 4 0 1,1 8,0 a4 4 0 1,1 -8,0 M8,132 a4 4 0 1,1 8,0 a4 4 0 1,1 -8,0 M24,132 a4 4 0 1,1 8,0 a4 4 0 1,1 -8,0 M40,132 a4 4 0 1,1 8,0 a4 4 0 1,1 -8,0 M64,132 a4 4 0 1,1 8,0 a4 4 0 1,1 -8,0 M96,132 a4 4 0 1,1 8,0 a4 4 0 1,1 -8,0 M104,132 a4 4 0 1,1 8,0 a4 4 0 1,1 -8,0 M112,132 a4 4 0 1,1 8,0 a4 4 0 1,1 -8,0 M152,132 a4 4 0 1,1 8,0 a4 4 0 1,1 -8,0 M160,132 a4 4 0 1,1 8,0 a4 4 0 1,1 -8,0 M168,132 a4 4 0 1,1 8,0 a4 4 0 1,1 -8,0 M184,132 a4 4 0 1,1 8,0 a4 4 0 1,1 -8,0 M208,132 a4 4 0 1,1 8,0 a4 4 0 1,1 -8,0 M224,132 a4 4 0 1,1 8,0 a4 4 0 1,1 -8,0 M240,132 a4 4 0 1,1 8,0 a4 4 0 1,1 -8,0 M248,132 a4 4 0 1,1 8,0 a4 4 0 1,1 -8,0"></path><path fill="#864d64" d="M16,140 a4 4 0 1,1 8,0 a4 4 0 1,1 -8,0 M32,140 a4 4 0 1,1 8,0 a4 4 0 1,1 -8,0 M48,140 a4 4 0 1,1 8,0 a4 4 0 1,1 -8,0 M56,140 a4 4 0 1,1 8,0 a4 4 0 1,1 -8,0 M72,140 a4 4 0 1,1 8,0 a4 4 0 1,1 -8,0 M80,140 a4 4 0 1,1 8,0 a4 4 0 1,1 -8,0 M88,140 a4 4 0 1,1 8,0 a4 4 0 1,1 -8,0 M120,140 a4 4 0 1,1 8,0 a4 4 0 1,1 -8,0 M128,140 a4 4 0 1,1 8,0 a4 4 0 1,1 -8,0 M136,140 a4 4 0 1,1 8,0 a4 4 0 1,1 -8,0 M144,140 a4 4 0 1,1 8,0 a4 4 0 1,1 -8,0 M176,140 a4 4 0 1,1 8,0 a4 4 0 1,1 -8,0 M192,140 a4 4 0 1,1 8,0 a4 4 0 1,1 -8,0 M200,140 a4 4 0 1,1 8,0 a4 4 0 1,1 -8,0 M216,140 a4 4 0 1,1 8,0 a4 4 0 1,1 -8,0 M232,140 a4 4 0 1,1 8,0 a4 4 0 1,1 -8,0"></path><path fill="#a46f7d" d="M16,148 a4 4 0 1,1 8,0 a4 4 0 1,1 -8,0 M32,148 a4 4 0 1,1 8,0 a4 4 0 1,1 -8,0 M48,148 a4 4 0 1,1 8,0 a4 4 0 1,1 -8,0 M56,148 a4 4 0 1,1 8,0 a4 4 0 1,1 -8,0 M72,148 a4 4 0 1,1 8,0 a4 4 0 1,1 -8,0 M80,148 a4 4 0 1,1 8,0 a4 4 0 1,1 -8,0 M88,148 a4 4 0 1,1 8,0 a4 4 0 1,1 -8,0 M120,148 a4 4 0 1,1 8,0 a4 4 0 1,1 -8,0 M128,148 a4 4 0 1,1 8,0 a4 4 0 1,1 -8,0 M136,148 a4 4 0 1,1 8,0 a4 4 0 1,1 -8,0 M144,148 a4 4 0 1,1 8,0 a4 4 0 1,1 -8,0 M176,148 a4 4 0 1,1 8,0 a4 4 0 1,1 -8,0 M192,148 a4 4 0 1,1 8,0 a4 4 0 1,1 -8,0 M200,148 a4 4 0 1,1 8,0 a4 4 0 1,1 -8,0 M216,148 a4 4 0 1,1 8,0 a4 4 0 1,1 -8,0 M232,148 a4 4 0 1,1 8,0 a4 4 0 1,1 -8,0"></path><path fill="#a525e4" d="M16,156 a4 4 0 1,1 8,0 a4 4 0 1,1 -8,0 M32,156 a4 4 0 1,1 8,0 a4 4 0 1,1 -8,0 M48,156 a4 4 0 1,1 8,0 a4 4 0 1,1 -8,0 M56,156 a4 4 0 1,1 8,0 a4 4 0 1,1 -8,0 M72,156 a4 4 0 1,1 8,0 a4 4 0 1,1 -8,0 M80,156 a4 4 0 1,1 8,0 a4 4 0 1,1 -8,0 M88,156 a4 4 0 1,1 8,0 a4 4 0 1,1 -8,0 M120,156 a4 4 0 1,1 8,0 a4 4 0 1,1 -8,0 M128,156 a4 4 0 1,1 8,0 a4 4 0 1,1 -8,0 M136,156 a4 4 0 1,1 8,0 a4 4 0 1,1 -8,0 M144,156 a4 4 0 1,1 8,0 a4 4 0 1,1 -8,0 M176,156 a4 4 0 1,1 8,0 a4 4 0 1,1 -8,0 M192,156 a4 4 0 1,1 8,0 a4 4 0 1,1 -8,0 M200,156 a4 4 0 1,1 8,0 a4 4 0 1,1 -8,0 M216,156 a4 4 0 1,1 8,0 a4 4 0 1,1 -8,0 M232,156 a4 4 0 1,1 8,0 a4 4 0 1,1 -8,0"></path><path fill="#17ebb4" d="M16,164 a4 4 0 1,1 8,0 a4 4 0 1,1 -8,0 M32,164 a4 4 0 1,1 8,0 a4 4 0 1,1 -8,0 M48,164 a4 4 0 1,1 8,0 a4 4 0 1,1 -8,0 M56,164 a4 4 0 1,1 8,0 a4 4 0 1,1 -8,0 M72,164 a4 4 0 1,1 8,0 a4 4 0 1,1 -8,0 M80,164 a4 4 0 1,1 8,0 a4 4 0 1,1 -8,0 M88,164 a4 4 0 1,1 8,0 a4 4 0 1,1 -8,0 M120,164 a4 4 0 1,1 8,0 a4 4 0 1,1 -8,0 M128,164 a4 4 0 1,1 8,0 a4 4 0 1,1 -8,0 M136,164 a4 4 0 1,1 8,0 a4 4 0 1,1 -8,0 M144,164 a4 4 0 1,1 8,0 a4 4 0 1,1 -8,0 M176,164 a4 4 0 1,1 8,0 a4 4 0 1,1 -8,0 M192,164 a4 4 0 1,1 8,0 a4 4 0 1,1 -8,0 M200,164 a4 4 0 1,1 8,0 a4 4 0 1,1 -8,0 M216,164 a4 4 0 1,1 8,0 a4 4 0 1,1 -8,0 M232,164 a4 4 0 1,1 8,0 a4 4 0 1,1 -8,0"></path><path fill="#580f6f" d="M0,172 a4 4 0 1,1 8,0 a4 4 0 1,1 -8,0 M8,172 a4 4 0 1,1 8,0 a4 4 0 1,1 -8,0 M24,172 a4 4 0 1,1 8,0 a4 4 0 1,1 -8,0 M40,172 a4 4 0 1,1 8,0 a4 4 0 1,1 -8,0 M64,172 a4 4 0 1,1 8,0 a4 4 0 1,1 -8,0 M96,172 a4 4 0 1,1 8,0 a4 4 0 1,1 -8,0 M104,172 a4 4 0 1,1 8,0 a4 4 0 1,1 -8,0 M112,172 a4 4 0 1,1 8,0 a4 4 0 1,1 -8,0 M152,172 a4 4 0 1,1 8,0 a4 4 0 1,1 -8,0 M160,172 a4 4 0 1,1 8,0 a4 4 0 1,1 -8,0 M168,172 a4 4 0 1,1 8,0 a4 4 0 1,1 -8,0 M184,172 a4 4 0 1,1 8,0 a4 4 0 1,1 -8,0 M208,172 a4 4 0 1,1 8,0 a4 4 0 1,1 -8,0 M224,172 a4 4 0 1,1 8,0 a4 4 0 1,1 -8,0 M240,172 a4 4 0 1,1 8,0 a4 4 0 1,1 -8,0 M248,172 a4 4 0 1,1 8,0 a4 4 0 1,1 -8,0"></path><path fill="#edd11c" d="M16,180 a4 4 0 1,1 8,0 a4 4 0 1,1 -8,0 M32,180 a4 4 0 1,1 8,0 a4 4 0 1,1 -8,0 M48,180 a4 4 0 1,1 8,0 a4 4 0 1,1 -8,0 M56,180 a4 4 0 1,1 8,0 a4 4 0 1,1 -8,0 M72,180 a4 4 0 1,1 8,0 a4 4 0 1,1 -8,0 M80,180 a4 4 0 1,1 8,0 a4 4 0 1,1 -8,0 M88,180 a4 4 0 1,1 8,0 a4 4 0 1,1 -8,0 M120,180 a4 4 0 1,1 8,0 a4 4 0 1,1 -8,0 M128,180 a4 4 0 1,1 8,0 a4 4 0 1,1 -8,0 M136,180 a4 4 0 1,1 8,0 a4 4 0 1,1 -8,0 M144,180 a4 4 0 1,1 8,0 a4 4 0 1,1 -8,0 M176,180 a4 4 0 1,1 8,0 a4 4 0 1,1 -8,0 M192,180 a4 4 0 1,1 8,0 a4 4 0 1,1 -8,0 M200,180 a4 4 0 1,1 8,0 a4 4 0 1,1 -8,0 M216,180 a4 4 0 1,1 8,0 a4 4 0 1,1 -8,0 M232,180 a4 4 0 1,1 8,0 a4 4 0 1,1 -8,0"></path><path fill="#94029b" d="M16,188 a4 4 0 1,1 8,0 a4 4 0 1,1 -8,0 M32,188 a4 4 0 1,1 8,0 a4 4 0 1,1 -8,0 M48,188 a4 4 0 1,1 8,0 a4 4 0 1,1 -8,0 M56,188 a4 4 0 1,1 8,0 a4 4 0 1,1 -8,0 M72,188 a4 4 0 1,1 8,0 a4 4 0 1,1 -8,0 M80,188 a4 4 0 1,1 8,0 a4 4 0 1,1 -8,0 M88,188 a4 4 0 1,1 8,0 a4 4 0 1,1 -8,0 M120,188 a4 4 0 1,1 8,0 a4 4 0 1,1 -8,0 M128,188 a4 4 0 1,1 8,0 a4 4 0 1,1 -8,0 M136,188 a4 4 0 1,1 8,0 a4 4 0 1,1 -8,0 M144,188 a4 4 0 1,1 8,0 a4 4 0 1,1 -8,0 M176,188 a4 4 0 1,1 8,0 a4 4 0 1,1 -8,0 M192,188 a4 4 0 1,1 8,0 a4 4 0 1,1 -8,0 M200,188 a4 4 0 1,1 8,0 a4 4 0 1,1 -8,0 M216,188 a4 4 0 1,1 8,0 a4 4 0 1,1 -8,0 M232,188 a4 4 0 1,1 8,0 a4 4 0 1,1 -8,0"></path><path fill="#968009" d="M16,196 a4 4 0 1,1 8,0 a4 4 0 1,1 -8,0 M32,196 a4 4 0 1,1 8,0 a4 4 0 1,1 -8,0 M48,196 a4 4 0 1,1 8,0 a4 4 0 1,1 -8,0 M56,196 a4 4 0 1,1 8,0 a4 4 0 1,1 -8,0 M72,196 a4 4 0 1,1 8,0 a4 4 0 1,1 -8,0 M80,196 a4 4 0 1,1 8,0 a4 4 0 1,1 -8,0 M88,196 a4 4 0 1,1 8,0 a4 4 0 1,1 -8,0 M120,196 a4 4 0 1,1 8,0 a4 4 0 1,1 -8,0 M128,196 a4 4 0 1,1 8,0 a4 4 0 1,1 -8,0 M136,196 a4 4 0 1,1 8,0 a4 4 0 1,1 -8,0 M144,196 a4 4 0 1,1 8,0 a4 4 0 1,1 -8,0 M176,196 a4 4 0 1,1 8,0 a4 4 0 1,1 -8,0 M192,196 a4 4 0 1,1 8,0 a4 4 0 1,1 -8,0 M200,196 a4 4 0 1,1 8,0 a4 4 0 1,1 -8,0 M216,196 a4 4 0 1,1 8,0 a4 4 0 1,1 -8,0 M232,196 a4 4 0 1,1 8,0 a4 4 0 1,1 -8,0"></path><path fill="#d4d0ea" d="M16,204 a4 4 0 1,1 8,0 a4 4 0 1,1 -8,0 M32,204 a4 4 0 1,1 8,0 a4 4 0 1,1 -8,0 M48,204 a4 4 0 1,1 8,0 a4 4 0 1,1 -8,0 M56,204 a4 4 0 1,1 8,0 a4 4 0 1,1 -8,0 M72,204 a4 4 0 1,1 8,0 a4 4 0 1,1 -8,0 M80,204 a4 4 0 1,1 8,0 a4 4 0 1,1 -8,0 M88,204 a4 4 0 1,1 8,0 a4 4 0 1,1 -8,0 M120,204 a4 4 0 1,1 8,0 a4 4 0 1,1 -8,0 M128,204 a4 4 0 1,1 8,0 a4 4 0 1,1 -8,0 M136,204 a4 4 0 1,1 8,0 a4 4 0 1,1 -8,0 M144,204 a4 4 0 1,1 8,0 a4 4 0 1,1 -8,0 M176,204 a4 4 0 1,1 8,0 a4 4 0 1,1 -8,0 M192,204 a4 4 0 1,1 8,0 a4 4 0 1,1 -8,0 M200,204 a4 4 0 1,1 8,0 a4 4 0 1,1 -8,0 M216,204 a4 4 0 1,1 8,0 a4 4 0 1,1 -8,0 M232,204 a4 4 0 1,1 8,0 a4 4 0 1,1 -8,0"></path><path fill="#058f4e" d="M16,212 a4 4 0 1,1 8,0 a4 4 0 1,1 -8,0 M32,212 a4 4 0 1,1 8,0 a4 4 0 1,1 -8,0 M48,212 a4 4 0 1,1 8,0 a4 4 0 1,1 -8,0 M56,212 a4 4 0 1,1 8,0 a4 4 0 1,1 -8,0 M72,212 a4 4 0 1,1 8,0 a4 4 0 1,1 -8,0 M80,212 a4 4 0 1,1 8,0 a4 4 0 1,1 -8,0 M88,212 a4 4 0 1,1 8,0 a4 4 0 1,1 -8,0 M120,212 a4 4 0 1,1 8,0 a4 4 0 1,1 -8,0 M128,212 a4 4 0 1,1 8,0 a4 4 0 1,1 -8,0 M136,212 a4 4 0 1,1 8,0 a4 4 0 1,1 -8,0 M144,212 a4 4 0 1,1 8,0 a4 4 0 1,1 -8,0 M176,212 a4 4 0 1,1 8,0 a4 4 0 1,1 -8,0 M192,212 a4 4 0 1,1 8,0 a4 4 0 1,1 -8,0 M200,212 a4 4 0 1,1 8,0 a4 4 0 1,1 -8,0 M216,212 a4 4 0 1,1 8,0 a4 4 0 1,1 -8,0 M232,212 a4 4 0 1,1 8,0 a4 4 0 1,1 -8,0"></path><path fill="#1669b5" d="M0,220 a4 4 0 1,1 8,0 a4 4 0 1,1 -8,0 M8,220 a4 4 0 1,1 8,0 a4 4 0 1,1 -8,0 M24,220 a4 4 0 1,1 8,0 a4 4 0 1,1 -8,0 M40,220 a4 4 0 1,1 8,0 a4 4 0 1,1 -8,0 M64,220 a4 4 0 1,1 8,0 a4 4 0 1,1 -8,0 M96,220 a4 4 0 1,1 8,0 a4 4 0 1,1 -8,0 M104,220 a4 4 0 1,1 8,0 a4 4 0 1,1 -8,0 M112,220 a4 4 0 1,1 8,0 a4 4 0 1,1 -8,0 M152,220 a4 4 0 1,1 8,0 a4 4 0 1,1 -8,0 M160,220 a4 4 0 1,1 8,0 a4 4 0 1,1 -8,0 M168,220 a4 4 0 1,1 8,0 a4 4 0 1,1 -8,0 M184,220 a4 4 0 1,1 8,0 a4 4 0 1,1 -8,0 M208,220 a4 4 0 1,1 8,0 a4 4 0 1,1 -8,0 M224,220 a4 4 0 1,1 8,0 a4 4 0 1,1 -8,0 M240,220 a4 4 0 1,1 8,0 a4 4 0 1,1 -8,0 M248,220 a4 4 0 1,1 8,0 a4 4 0 1,1 -8,0"></path><path fill="#270a4c" d="M0,228 a4 4 0 1,1 8,0 a4 4 0 1,1 -8,0 M8,228 a4 4 0 1,1 8,0 a4 4 0 1,1 -8,0 M24,228 a4 4 0 1,1 8,0 a4 4 0 1,1 -8,0 M40,228 a4 4 0 1,1 8,0 a4 4 0 1,1 -8,0 M64,228 a4 4 0 1,1 8,0 a4 4 0 1,1 -8,0 M96,228 a4 4 0 1,1 8,0 a4 4 0 1,1 -8,0 M104,228 a4 4 0 1,1 8,0 a4 4 0 1,1 -8,0 M112,228 a4 4 0 1,1 8,0 a4 4 0 1,1 -8,0 M152,228 a4 4 0 1,1 8,0 a4 4 0 1,1 -8,0 M160,228 a4 4 0 1,1 8,0 a4 4 0 1,1 -8,0 M168,228 a4 4 0 1,1 8,0 a4 4 0 1,1 -8,0 M184,228 a4 4 0 1,1 8,0 a4 4 0 1,1 -8,0 M208,228 a4 4 0 1,1 8,0 a4 4 0 1,1 -8,0 M224,228 a4 4 0 1,1 8,0 a4 4 0 1,1 -8,0 M240,228 a4 4 0 1,1 8,0 a4 4 0 1,1 -8,0 M248,228 a4 4 0 1,1 8,0 a4 4 0 1,1 -8,0"></path><path fill="#e64678" d="M16,236 a4 4 0 1,1 8,0 a4 4 0 1,1 -8,0 M32,236 a4 4 0 1,1 8,0 a4 4 0 1,1 -8,0 M48,236 a4 4 0 1,1 8,0 a4 4 0 1,1 -8,0 M56,236 a4 4 0 1,1 8,0 a4 4 0 1,1 -8,0 M72,236 a4 4 0 1,1 8,0 a4 4 0 1,1 -8,0 M80,236 a4 4 0 1,1 8,0 a4 4 0 1,1 -8,0 M88,236 a4 4 0 1,1 8,0 a4 4 0 1,1 -8,0 M120,236 a4 4 0 1,1 8,0 a4 4 0 1,1 -8,0 M128,236 a4 4 0 1,1 8,0 a4 4 0 1,1 -8,0 M136,236 a4 4 0 1,1 8,0 a4 4 0 1,1 -8,0 M144,236 a4 4 0 1,1 8,0 a4 4 0 1,1 -8,0 M176,236 a4 4 0 1,1 8,0 a4 4 0 1,1 -8,0 M192,236 a4 4 0 1,1 8,0 a4 4 0 1,1 -8,0 M200,236 a4 4 0 1,1 8,0 a4 4 0 1,1 -8,0 M216,236 a4 4 0 1,1 8,0 a4 4 0 1,1 -8,0 M232,236 a4 4 0 1,1 8,0 a4 4 0 1,1 -8,0"></path><path fill="#c50129" d="M16,244 a4 4 0 1,1 8,0 a4 4 0 1,1 -8,0 M32,244 a4 4 0 1,1 8,0 a4 4 0 1,1 -8,0 M48,244 a4 4 0 1,1 8,0 a4 4 0 1,1 -8,0 M56,244 a4 4 0 1,1 8,0 a4 4 0 1,1 -8,0 M72,244 a4 4 0 1,1 8,0 a4 4 0 1,1 -8,0 M80,244 a4 4 0 1,1 8,0 a4 4 0 1,1 -8,0 M88,244 a4 4 0 1,1 8,0 a4 4 0 1,1 -8,0 M120,244 a4 4 0 1,1 8,0 a4 4 0 1,1 -8,0 M128,244 a4 4 0 1,1 8,0 a4 4 0 1,1 -8,0 M136,244 a4 4 0 1,1 8,0 a4 4 0 1,1 -8,0 M144,244 a4 4 0 1,1 8,0 a4 4 0 1,1 -8,0 M176,244 a4 4 0 1,1 8,0 a4 4 0 1,1 -8,0 M192,244 a4 4 0 1,1 8,0 a4 4 0 1,1 -8,0 M200,244 a4 4 0 1,1 8,0 a4 4 0 1,1 -8,0 M216,244 a4 4 0 1,1 8,0 a4 4 0 1,1 -8,0 M232,244 a4 4 0 1,1 8,0 a4 4 0 1,1 -8,0"></path><path fill="#cf7acd" d="M0,252 a4 4 0 1,1 8,0 a4 4 0 1,1 -8,0 M8,252 a4 4 0 1,1 8,0 a4 4 0 1,1 -8,0 M24,252 a4 4 0 1,1 8,0 a4 4 0 1,1 -8,0 M40,252 a4 4 0 1,1 8,0 a4 4 0 1,1 -8,0 M64,252 a4 4 0 1,1 8,0 a4 4 0 1,1 -8,0 M96,252 a4 4 0 1,1 8,0 a4 4 0 1,1 -8,0 M104,252 a4 4 0 1,1 8,0 a4 4 0 1,1 -8,0 M112,252 a4 4 0 1,1 8,0 a4 4 0 1,1 -8,0 M152,252 a4 4 0 1,1 8,0 a4 4 0 1,1 -8,0 M160,252 a4 4 0 1,1 8,0 a4 4 0 1,1 -8,0 M168,252 a4 4 0 1,1 8,0 a4 4 0 1,1 -8,0 M184,252 a4 4 0 1,1 8,0 a4 4 0 1,1 -8,0 M208,252 a4 4 0 1,1 8,0 a4 4 0 1,1 -8,0 M224,252 a4 4 0 1,1 8,0 a4 4 0 1,1 -8,0 M240,252 a4 4 0 1,1 8,0 a4 4 0 1,1 -8,0 M248,252 a4 4 0 1,1 8,0 a4 4 0 1,1 -8,0"></path></svg>