<svg xmlns="http://www.w3.org/2000/svg" width="100%" height="100%" viewBox="0 0 256 256"><path fill="#f5b960" d="M14,0 l14 14 l-14 14 l-14 -14z M98,0 l14 14 l-14 14 l-14 -14z M126,0 l14 14 l-14 14 l-14 -14z M182,0 l14 14 l-14 14 l-14 -14z M210,0 l14 14 l-14 14 l-14 -14z M238,0 l14 14 l-14 14 l-14 -14z"></path><path fill="#6862af" d="M42,28 l14 14 l-14 14 l-14 -14z M70,28 l14 14 l-14 14 l-14 -14z M154,28 l14 14 l-14 14 l-14 -14z"></path><path fill="#590967" d="M14,56 l14 14 l-14 14 l-14 -14z M98,56 l14 14 l-14 14 l-14 -14z M126,56 l14 14 l-14 14 l-14 -14z M182,56 l14 14 l-14 14 l-14 -14z M210,56 l14 14 l-14 14 l-14 -14z M238,56 l14 14 l-14 14 l-14 -14z"></path><path fill="#ee2240" d="M42,84 l14 14 l-14 14 l-14 -14z M70,84 l14 14 l-14 14 l-14 -14z M154,84 l14 14 l-14 14 l-14 -14z"></path><path fill="#268aa4" d="M14,112 l14 14 l-14 14 l-14 -14z M98,112 l14 14 l-14 14 l-14 -14z M126,112 l14 14 l-14 14 l-14 -14z M182,112 l14 14 l-14 14 l-14 -14z M210,112 l14 14 l-14 14 l-14 -14z M238,112 l14 14 l-14 14 l-14 -14z"></path><path fill="#d85871" d="M14,140 l14 14 l-14 14 l-14 -14z M98,140 l14 14 l-14 14 l-14 -14z M126,140 l14 14 l-14 14 l-14 -14z M182,140 l14 14 l-14 14 l-14 -14z M210,140 l14 14 l-14 14 l-14 -14z M238,140 l14 14 l-14 14 l-14 -14z"></path><path fill="#63f81a" d="M14,168 l14 14 l-14 14 l-14 -14z M98,168 l14 14 l-14 14 l-14 -14z M126,168 l14 14 l-14 14 l-14 -14z M182,168 l14 14 l-14 14 l-14 -14z M210,168 l14 14 l-14 14 l-14 -14z M238,168 l14 14 l-14 14 l-14 -14z"></path><path fill="#c883c2" d="M42,196 l14 14 l-14 14 l-14 -14z M70,196 l14 14 l-14 14 l-14 -14z M154,196 l14 14 l-14 14 l-14 -14z"></path><path fill="#7b3ea5" d="M42,224 l14 14 l-14 14 l-14 -14z M70,224 l14 14 l-14 14 l-14 -14z M154,224 l14 14 l-14 14 l-14 -14z"></path></svg>