<svg xmlns="http://www.w3.org/2000/svg" viewBox="0 0 256 256"><path fill="#8a7b98" d="M8,0 h8 v8 h-8Z M16,0 h8 v8 h-8Z M48,0 h8 v8 h-8Z M56,0 h8 v8 h-8Z M88,0 h8 v8 h-8Z M96,0 h8 v8 h-8Z M120,0 h8 v8 h-8Z M144,0 h8 v8 h-8Z M152,0 h8 v8 h-8Z M168,0 h8 v8 h-8Z M176,0 h8 v8 h-8Z M184,0 h8 v8 h-8Z M192,0 h8 v8 h-8Z M208,0 h8 v8 h-8Z M216,0 h8 v8 h-8Z M224,0 h8 v8 h-8Z M232,0 h8 v8 h-8Z M240,0 h8 v8 h-8Z"></path><path fill="#4be73d" d="M8,8 h8 v8 h-8Z M16,8 h8 v8 h-8Z M48,8 h8 v8 h-8Z M56,8 h8 v8 h-8Z M88,8 h8 v8 h-8Z M96,8 h8 v8 h-8Z M120,8 h8 v8 h-8Z M144,8 h8 v8 h-8Z M152,8 h8 v8 h-8Z M168,8 h8 v8 h-8Z M176,8 h8 v8 h-8Z M184,8 h8 v8 h-8Z M192,8 h8 v8 h-8Z M208,8 h8 v8 h-8Z M216,8 h8 v8 h-8Z M224,8 h8 v8 h-8Z M232,8 h8 v8 h-8Z M240,8 h8 v8 h-8Z"></path><path fill="#4408a6" d="M0,16 h8 v8 h-8Z M24,16 h8 v8 h-8Z M32,16 h8 v8 h-8Z M40,16 h8 v8 h-8Z M64,16 h8 v8 h-8Z M72,16 h8 v8 h-8Z M80,16 h8 v8 h-8Z M104,16 h8 v8 h-8Z M112,16 h8 v8 h-8Z M128,16 h8 v8 h-8Z M136,16 h8 v8 h-8Z M160,16 h8 v8 h-8Z M200,16 h8 v8 h-8Z M248,16 h8 v8 h-8Z"></path><path fill="#2289e4" d="M8,24 h8 v8 h-8Z M16,24 h8 v8 h-8Z M48,24 h8 v8 h-8Z M56,24 h8 v8 h-8Z M88,24 h8 v8 h-8Z M96,24 h8 v8 h-8Z M120,24 h8 v8 h-8Z M144,24 h8 v8 h-8Z M152,24 h8 v8 h-8Z M168,24 h8 v8 h-8Z M176,24 h8 v8 h-8Z M184,24 h8 v8 h-8Z M192,24 h8 v8 h-8Z M208,24 h8 v8 h-8Z M216,24 h8 v8 h-8Z M224,24 h8 v8 h-8Z M232,24 h8 v8 h-8Z M240,24 h8 v8 h-8Z"></path><path fill="#c8d950" d="M8,32 h8 v8 h-8Z M16,32 h8 v8 h-8Z M48,32 h8 v8 h-8Z M56,32 h8 v8 h-8Z M88,32 h8 v8 h-8Z M96,32 h8 v8 h-8Z M120,32 h8 v8 h-8Z M144,32 h8 v8 h-8Z M152,32 h8 v8 h-8Z M168,32 h8 v8 h-8Z M176,32 h8 v8 h-8Z M184,32 h8 v8 h-8Z M192,32 h8 v8 h-8Z M208,32 h8 v8 h-8Z M216,32 h8 v8 h-8Z M224,32 h8 v8 h-8Z M232,32 h8 v8 h-8Z M240,32 h8 v8 h-8Z"></path><path fill="#68bbf4" d="M0,40 h8 v8 h-8Z M24,40 h8 v8 h-8Z M32,40 h8 v8 h-8Z M40,40 h8 v8 h-8Z M64,40 h8 v8 h-8Z M72,40 h8 v8 h-8Z M80,40 h8 v8 h-8Z M104,40 h8 v8 h-8Z M112,40 h8 v8 h-8Z M128,40 h8 v8 h-8Z M136,40 h8 v8 h-8Z M160,40 h8 v8 h-8Z M200,40 h8 v8 h-8Z M248,40 h8 v8 h-8Z"></path><path fill="#a12201" d="M8,48 h8 v8 h-8Z M16,48 h8 v8 h-8Z M48,48 h8 v8 h-8Z M56,48 h8 v8 h-8Z M88,48 h8 v8 h-8Z M96,48 h8 v8 h-8Z M120,48 h8 v8 h-8Z M144,48 h8 v8 h-8Z M152,48 h8 v8 h-8Z M168,48 h8 v8 h-8Z M176,48 h8 v8 h-8Z M184,48 h8 v8 h-8Z M192,48 h8 v8 h-8Z M208,48 h8 v8 h-8Z M216,48 h8 v8 h-8Z M224,48 h8 v8 h-8Z M232,48 h8 v8 h-8Z M240,48 h8 v8 h-8Z"></path><path fill="#d623e7" d="M8,56 h8 v8 h-8Z M16,56 h8 v8 h-8Z M48,56 h8 v8 h-8Z M56,56 h8 v8 h-8Z M88,56 h8 v8 h-8Z M96,56 h8 v8 h-8Z M120,56 h8 v8 h-8Z M144,56 h8 v8 h-8Z M152,56 h8 v8 h-8Z M168,56 h8 v8 h-8Z M176,56 h8 v8 h-8Z M184,56 h8 v8 h-8Z M192,56 h8 v8 h-8Z M208,56 h8 v8 h-8Z M216,56 h8 v8 h-8Z M224,56 h8 v8 h-8Z M232,56 h8 v8 h-8Z M240,56 h8 v8 h-8Z"></path><path fill="#f41002" d="M0,64 h8 v8 h-8Z M24,64 h8 v8 h-8Z M32,64 h8 v8 h-8Z M40,64 h8 v8 h-8Z M64,64 h8 v8 h-8Z M72,64 h8 v8 h-8Z M80,64 h8 v8 h-8Z M104,64 h8 v8 h-8Z M112,64 h8 v8 h-8Z M128,64 h8 v8 h-8Z M136,64 h8 v8 h-8Z M160,64 h8 v8 h-8Z M200,64 h8 v8 h-8Z M248,64 h8 v8 h-8Z"></path><path fill="#004714" d="M0,72 h8 v8 h-8Z M24,72 h8 v8 h-8Z M32,72 h8 v8 h-8Z M40,72 h8 v8 h-8Z M64,72 h8 v8 h-8Z M72,72 h8 v8 h-8Z M80,72 h8 v8 h-8Z M104,72 h8 v8 h-8Z M112,72 h8 v8 h-8Z M128,72 h8 v8 h-8Z M136,72 h8 v8 h-8Z M160,72 h8 v8 h-8Z M200,72 h8 v8 h-8Z M248,72 h8 v8 h-8Z"></path><path fill="#42f6e9" d="M8,80 h8 v8 h-8Z M16,80 h8 v8 h-8Z M48,80 h8 v8 h-8Z M56,80 h8 v8 h-8Z M88,80 h8 v8 h-8Z M96,80 h8 v8 h-8Z M120,80 h8 v8 h-8Z M144,80 h8 v8 h-8Z M152,80 h8 v8 h-8Z M168,80 h8 v8 h-8Z M176,80 h8 v8 h-8Z M184,80 h8 v8 h-8Z M192,80 h8 v8 h-8Z M208,80 h8 v8 h-8Z M216,80 h8 v8 h-8Z M224,80 h8 v8 h-8Z M232,80 h8 v8 h-8Z M240,80 h8 v8 h-8Z"></path><path fill="#f50672" d="M8,88 h8 v8 h-8Z M16,88 h8 v8 h-8Z M48,88 h8 v8 h-8Z M56,88 h8 v8 h-8Z M88,88 h8 v8 h-8Z M96,88 h8 v8 h-8Z M120,88 h8 v8 h-8Z M144,88 h8 v8 h-8Z M152,88 h8 v8 h-8Z M168,88 h8 v8 h-8Z M176,88 h8 v8 h-8Z M184,88 h8 v8 h-8Z M192,88 h8 v8 h-8Z M208,88 h8 v8 h-8Z M216,88 h8 v8 h-8Z M224,88 h8 v8 h-8Z M232,88 h8 v8 h-8Z M240,88 h8 v8 h-8Z"></path><path fill="#067995" d="M8,96 h8 v8 h-8Z M16,96 h8 v8 h-8Z M48,96 h8 v8 h-8Z M56,96 h8 v8 h-8Z M88,96 h8 v8 h-8Z M96,96 h8 v8 h-8Z M120,96 h8 v8 h-8Z M144,96 h8 v8 h-8Z M152,96 h8 v8 h-8Z M168,96 h8 v8 h-8Z M176,96 h8 v8 h-8Z M184,96 h8 v8 h-8Z M192,96 h8 v8 h-8Z M208,96 h8 v8 h-8Z M216,96 h8 v8 h-8Z M224,96 h8 v8 h-8Z M232,96 h8 v8 h-8Z M240,96 h8 v8 h-8Z"></path><path fill="#ec9539" d="M0,104 h8 v8 h-8Z M24,104 h8 v8 h-8Z M32,104 h8 v8 h-8Z M40,104 h8 v8 h-8Z M64,104 h8 v8 h-8Z M72,104 h8 v8 h-8Z M80,104 h8 v8 h-8Z M104,104 h8 v8 h-8Z M112,104 h8 v8 h-8Z M128,104 h8 v8 h-8Z M136,104 h8 v8 h-8Z M160,104 h8 v8 h-8Z M200,104 h8 v8 h-8Z M248,104 h8 v8 h-8Z"></path><path fill="#e4d187" d="M0,112 h8 v8 h-8Z M24,112 h8 v8 h-8Z M32,112 h8 v8 h-8Z M40,112 h8 v8 h-8Z M64,112 h8 v8 h-8Z M72,112 h8 v8 h-8Z M80,112 h8 v8 h-8Z M104,112 h8 v8 h-8Z M112,112 h8 v8 h-8Z M128,112 h8 v8 h-8Z M136,112 h8 v8 h-8Z M160,112 h8 v8 h-8Z M200,112 h8 v8 h-8Z M248,112 h8 v8 h-8Z"></path><path fill="#4df77e" d="M0,120 h8 v8 h-8Z M24,120 h8 v8 h-8Z M32,120 h8 v8 h-8Z M40,120 h8 v8 h-8Z M64,120 h8 v8 h-8Z M72,120 h8 v8 h-8Z M80,120 h8 v8 h-8Z M104,120 h8 v8 h-8Z M112,120 h8 v8 h-8Z M128,120 h8 v8 h-8Z M136,120 h8 v8 h-8Z M160,120 h8 v8 h-8Z M200,120 h8 v8 h-8Z M248,120 h8 v8 h-8Z"></path><path fill="#f31d11" d="M0,128 h8 v8 h-8Z M24,128 h8 v8 h-8Z M32,128 h8 v8 h-8Z M40,128 h8 v8 h-8Z M64,128 h8 v8 h-8Z M72,128 h8 v8 h-8Z M80,128 h8 v8 h-8Z M104,128 h8 v8 h-8Z M112,128 h8 v8 h-8Z M128,128 h8 v8 h-8Z M136,128 h8 v8 h-8Z M160,128 h8 v8 h-8Z M200,128 h8 v8 h-8Z M248,128 h8 v8 h-8Z"></path><path fill="#ff7b73" d="M8,136 h8 v8 h-8Z M16,136 h8 v8 h-8Z M48,136 h8 v8 h-8Z M56,136 h8 v8 h-8Z M88,136 h8 v8 h-8Z M96,136 h8 v8 h-8Z M120,136 h8 v8 h-8Z M144,136 h8 v8 h-8Z M152,136 h8 v8 h-8Z M168,136 h8 v8 h-8Z M176,136 h8 v8 h-8Z M184,136 h8 v8 h-8Z M192,136 h8 v8 h-8Z M208,136 h8 v8 h-8Z M216,136 h8 v8 h-8Z M224,136 h8 v8 h-8Z M232,136 h8 v8 h-8Z M240,136 h8 v8 h-8Z"></path><path fill="#85b936" d="M0,144 h8 v8 h-8Z M24,144 h8 v8 h-8Z M32,144 h8 v8 h-8Z M40,144 h8 v8 h-8Z M64,144 h8 v8 h-8Z M72,144 h8 v8 h-8Z M80,144 h8 v8 h-8Z M104,144 h8 v8 h-8Z M112,144 h8 v8 h-8Z M128,144 h8 v8 h-8Z M136,144 h8 v8 h-8Z M160,144 h8 v8 h-8Z M200,144 h8 v8 h-8Z M248,144 h8 v8 h-8Z"></path><path fill="#14cb3c" d="M0,152 h8 v8 h-8Z M24,152 h8 v8 h-8Z M32,152 h8 v8 h-8Z M40,152 h8 v8 h-8Z M64,152 h8 v8 h-8Z M72,152 h8 v8 h-8Z M80,152 h8 v8 h-8Z M104,152 h8 v8 h-8Z M112,152 h8 v8 h-8Z M128,152 h8 v8 h-8Z M136,152 h8 v8 h-8Z M160,152 h8 v8 h-8Z M200,152 h8 v8 h-8Z M248,152 h8 v8 h-8Z"></path><path fill="#00ea6d" d="M8,160 h8 v8 h-8Z M16,160 h8 v8 h-8Z M48,160 h8 v8 h-8Z M56,160 h8 v8 h-8Z M88,160 h8 v8 h-8Z M96,160 h8 v8 h-8Z M120,160 h8 v8 h-8Z M144,160 h8 v8 h-8Z M152,160 h8 v8 h-8Z M168,160 h8 v8 h-8Z M176,160 h8 v8 h-8Z M184,160 h8 v8 h-8Z M192,160 h8 v8 h-8Z M208,160 h8 v8 h-8Z M216,160 h8 v8 h-8Z M224,160 h8 v8 h-8Z M232,160 h8 v8 h-8Z M240,160 h8 v8 h-8Z"></path><path fill="#e95641" d="M0,168 h8 v8 h-8Z M24,168 h8 v8 h-8Z M32,168 h8 v8 h-8Z M40,168 h8 v8 h-8Z M64,168 h8 v8 h-8Z M72,168 h8 v8 h-8Z M80,168 h8 v8 h-8Z M104,168 h8 v8 h-8Z M112,168 h8 v8 h-8Z M128,168 h8 v8 h-8Z M136,168 h8 v8 h-8Z M160,168 h8 v8 h-8Z M200,168 h8 v8 h-8Z M248,168 h8 v8 h-8Z"></path><path fill="#7ed7ea" d="M8,176 h8 v8 h-8Z M16,176 h8 v8 h-8Z M48,176 h8 v8 h-8Z M56,176 h8 v8 h-8Z M88,176 h8 v8 h-8Z M96,176 h8 v8 h-8Z M120,176 h8 v8 h-8Z M144,176 h8 v8 h-8Z M152,176 h8 v8 h-8Z M168,176 h8 v8 h-8Z M176,176 h8 v8 h-8Z M184,176 h8 v8 h-8Z M192,176 h8 v8 h-8Z M208,176 h8 v8 h-8Z M216,176 h8 v8 h-8Z M224,176 h8 v8 h-8Z M232,176 h8 v8 h-8Z M240,176 h8 v8 h-8Z"></path><path fill="#4c42b7" d="M8,184 h8 v8 h-8Z M16,184 h8 v8 h-8Z M48,184 h8 v8 h-8Z M56,184 h8 v8 h-8Z M88,184 h8 v8 h-8Z M96,184 h8 v8 h-8Z M120,184 h8 v8 h-8Z M144,184 h8 v8 h-8Z M152,184 h8 v8 h-8Z M168,184 h8 v8 h-8Z M176,184 h8 v8 h-8Z M184,184 h8 v8 h-8Z M192,184 h8 v8 h-8Z M208,184 h8 v8 h-8Z M216,184 h8 v8 h-8Z M224,184 h8 v8 h-8Z M232,184 h8 v8 h-8Z M240,184 h8 v8 h-8Z"></path><path fill="#622906" d="M0,192 h8 v8 h-8Z M24,192 h8 v8 h-8Z M32,192 h8 v8 h-8Z M40,192 h8 v8 h-8Z M64,192 h8 v8 h-8Z M72,192 h8 v8 h-8Z M80,192 h8 v8 h-8Z M104,192 h8 v8 h-8Z M112,192 h8 v8 h-8Z M128,192 h8 v8 h-8Z M136,192 h8 v8 h-8Z M160,192 h8 v8 h-8Z M200,192 h8 v8 h-8Z M248,192 h8 v8 h-8Z"></path><path fill="#c3f19d" d="M0,200 h8 v8 h-8Z M24,200 h8 v8 h-8Z M32,200 h8 v8 h-8Z M40,200 h8 v8 h-8Z M64,200 h8 v8 h-8Z M72,200 h8 v8 h-8Z M80,200 h8 v8 h-8Z M104,200 h8 v8 h-8Z M112,200 h8 v8 h-8Z M128,200 h8 v8 h-8Z M136,200 h8 v8 h-8Z M160,200 h8 v8 h-8Z M200,200 h8 v8 h-8Z M248,200 h8 v8 h-8Z"></path><path fill="#a38219" d="M0,208 h8 v8 h-8Z M24,208 h8 v8 h-8Z M32,208 h8 v8 h-8Z M40,208 h8 v8 h-8Z M64,208 h8 v8 h-8Z M72,208 h8 v8 h-8Z M80,208 h8 v8 h-8Z M104,208 h8 v8 h-8Z M112,208 h8 v8 h-8Z M128,208 h8 v8 h-8Z M136,208 h8 v8 h-8Z M160,208 h8 v8 h-8Z M200,208 h8 v8 h-8Z M248,208 h8 v8 h-8Z"></path><path fill="#fcde53" d="M8,216 h8 v8 h-8Z M16,216 h8 v8 h-8Z M48,216 h8 v8 h-8Z M56,216 h8 v8 h-8Z M88,216 h8 v8 h-8Z M96,216 h8 v8 h-8Z M120,216 h8 v8 h-8Z M144,216 h8 v8 h-8Z M152,216 h8 v8 h-8Z M168,216 h8 v8 h-8Z M176,216 h8 v8 h-8Z M184,216 h8 v8 h-8Z M192,216 h8 v8 h-8Z M208,216 h8 v8 h-8Z M216,216 h8 v8 h-8Z M224,216 h8 v8 h-8Z M232,216 h8 v8 h-8Z M240,216 h8 v8 h-8Z"></path><path fill="#30f764" d="M8,224 h8 v8 h-8Z M16,224 h8 v8 h-8Z M48,224 h8 v8 h-8Z M56,224 h8 v8 h-8Z M88,224 h8 v8 h-8Z M96,224 h8 v8 h-8Z M120,224 h8 v8 h-8Z M144,224 h8 v8 h-8Z M152,224 h8 v8 h-8Z M168,224 h8 v8 h-8Z M176,224 h8 v8 h-8Z M184,224 h8 v8 h-8Z M192,224 h8 v8 h-8Z M208,224 h8 v8 h-8Z M216,224 h8 v8 h-8Z M224,224 h8 v8 h-8Z M232,224 h8 v8 h-8Z M240,224 h8 v8 h-8Z"></path><path fill="#b2cce8" d="M0,232 h8 v8 h-8Z M24,232 h8 v8 h-8Z M32,232 h8 v8 h-8Z M40,232 h8 v8 h-8Z M64,232 h8 v8 h-8Z M72,232 h8 v8 h-8Z M80,232 h8 v8 h-8Z M104,232 h8 v8 h-8Z M112,232 h8 v8 h-8Z M128,232 h8 v8 h-8Z M136,232 h8 v8 h-8Z M160,232 h8 v8 h-8Z M200,232 h8 v8 h-8Z M248,232 h8 v8 h-8Z"></path><path fill="#06b9ef" d="M8,240 h8 v8 h-8Z M16,240 h8 v8 h-8Z M48,240 h8 v8 h-8Z M56,240 h8 v8 h-8Z M88,240 h8 v8 h-8Z M96,240 h8 v8 h-8Z M120,240 h8 v8 h-8Z M144,240 h8 v8 h-8Z M152,240 h8 v8 h-8Z M168,240 h8 v8 h-8Z M176,240 h8 v8 h-8Z M184,240 h8 v8 h-8Z M192,240 h8 v8 h-8Z M208,240 h8 v8 h-8Z M216,240 h8 v8 h-8Z M224,240 h8 v8 h-8Z M232,240 h8 v8 h-8Z M240,240 h8 v8 h-8Z"></path><path fill="#31f7ce" d="M8,248 h8 v8 h-8Z M16,248 h8 v8 h-8Z M48,248 h8 v8 h-8Z M56,248 h8 v8 h-8Z M88,248 h8 v8 h-8Z M96,248 h8 v8 h-8Z M120,248 h8 v8 h-8Z M144,248 h8 v8 h-8Z M152,248 h8 v8 h-8Z M168,248 h8 v8 h-8Z M176,248 h8 v8 h-8Z M184,248 h8 v8 h-8Z M192,248 h8 v8 h-8Z M208,248 h8 v8 h-8Z M216,248 h8 v8 h-8Z M224,248 h8 v8 h-8Z M232,248 h8 v8 h-8Z M240,248 h8 v8 h-8Z"></path></svg>